<svg height="360" viewBox="0 0 1200 360" width="1200" xmlns="http://www.w3.org/2000/svg">
  <defs>
    <linearGradient id="bg" x1="0" x2="1" y1="0" y2="1">
      <stop offset="0" stop-color="#0d1b2e"/>
      <stop offset="0.55" stop-color="#12294a"/>
      <stop offset="1" stop-color="#1b3a6b"/>
    </linearGradient>
    <radialGradient cx="0.5" cy="0.5" id="glow" r="0.5">
      <stop offset="0" stop-color="#3582ff" stop-opacity="0.32"/>
      <stop offset="1" stop-color="#3582ff" stop-opacity="0"/>
    </radialGradient>
    <pattern height="24" id="dots" patternUnits="userSpaceOnUse" width="24">
      <circle cx="1.5" cy="1.5" fill="#ffffff" opacity="0.07" r="1.2"/>
    </pattern>
  </defs>

  <rect fill="url(#bg)" height="360" width="1200"/>
  <rect fill="url(#dots)" height="360" width="1200"/>
  <rect fill="url(#glow)" height="360" width="1200"/>

  <!-- 角落装饰音符 -->
  <text fill="#3582ff" font-family="Georgia, serif" font-size="30" opacity="0.4" x="128" y="96">♪</text>
  <text fill="#38bdf8" font-family="Georgia, serif" font-size="24" opacity="0.35" x="1042" y="118">♫</text>
  <text fill="#3582ff" font-family="Georgia, serif" font-size="20" opacity="0.3" x="206" y="312">♬</text>
  <text fill="#38bdf8" font-family="Georgia, serif" font-size="18" opacity="0.28" x="982" y="300">♪</text>

  <!-- Logo（原 resources/logo.svg 向量化嵌入） -->
  <g transform="translate(525,26) scale(0.625)">
    <rect fill="#3582ff" height="240" rx="50" width="240"/>
    <path d="M 115.92,156.28 H 97.76 v -10.4 h 7.92 V 95.4 H 69.36 v -9.84 h 46.56 z M 42.8,107.08 h 19.12 v 33.68 l 7.52,-2.56 v 11.92 l -18.24,6.16 v -38.56 h -8.4 z m 16.4,-22.8 5.52,17.36 H 53.84 L 48.32,84.28 Z m 11.04,16.88 h 31.36 v 9.12 H 70.24 Z m 0.88,14.96 h 26.8 v 27.84 h -26.8 z m 17.36,18.56 v -9.28 h -7.92 v 9.28 z M 140.4,97.88 V 94.84 H 125.2 V 86.2 h 15.2 v -2.88 h 10.4 v 2.88 h 18.4 v -2.88 h 10.4 v 2.88 h 15.2 v 8.64 h -15.2 v 3.04 h 10.56 v 23.2 H 165.2 v 2.96 h 31.12 v 8.88 h -8.96 c 2.29333,3.14667 5.57333,5.54667 9.84,7.2 v 10.08 c -4.64,-1.65333 -8.61333,-3.81333 -11.92,-6.48 v 11.6 H 175.2 v -8.64 h -10.08 v 10 h -10.24 v -10 H 144.8 v 8.64 h -10.08 v -11.6 c -3.30667,2.66667 -7.28,4.82667 -11.92,6.48 v -10.08 c 4.26667,-1.65333 7.54667,-4.05333 9.84,-7.2 h -8.96 v -8.88 h 31.12 v -2.96 h -24.96 v -23.2 z m 14.48,40.4 v -4.16 h 10.24 v 4.16 h 14.96 c -1.22667,-1.70667 -2.26667,-3.49333 -3.12,-5.36 h -33.92 c -0.85333,1.86667 -1.89333,3.65333 -3.12,5.36 z m 24.88,-23.6 v -2.32 h -39.52 v 2.32 z m 0,-8.16 v -2.4 h -39.52 v 2.4 z M 169.2,97.88 v -3.04 h -18.4 v 3.04 z" fill="#ffffff"/>
  </g>

  <!-- 标题与标语 -->
  <text fill="#ffffff" font-family="'PingFang SC','Microsoft YaHei','Hiragino Sans GB','Noto Sans CJK SC',sans-serif" font-size="54" font-weight="700" text-anchor="middle" x="600" y="248">词幕</text>
  <text fill="#9ec5ff" font-family="'PingFang SC','Microsoft YaHei','Hiragino Sans GB','Noto Sans CJK SC',sans-serif" font-size="21" letter-spacing="5" text-anchor="middle" x="600" y="294">系统状态栏歌词扩展</text>

  <!-- 模拟状态栏歌词条 -->
  <rect fill="#ffffff" height="26" opacity="0.06" rx="13" stroke="#ffffff" stroke-opacity="0.14" width="920" x="140" y="318"/>
  <rect fill="#ffffff" height="5" opacity="0.7" rx="1" width="4" x="170" y="331"/>
  <rect fill="#ffffff" height="8" opacity="0.7" rx="1" width="4" x="180" y="328"/>
  <rect fill="#ffffff" height="11" opacity="0.7" rx="1" width="4" x="190" y="325"/>
  <rect fill="#ffffff" height="14" opacity="0.7" rx="1" width="4" x="200" y="322"/>
  <text fill="#d6e6ff" font-family="'PingFang SC','Microsoft YaHei','Hiragino Sans GB',sans-serif" font-size="13" text-anchor="middle" x="600" y="335">♪ 逐字歌词 · 翻译 · 动画 · 流体云适配</text>
  <rect fill="none" height="12" rx="3" stroke="#ffffff" stroke-opacity="0.55" width="26" x="1006" y="325"/>
  <rect fill="#ffffff" height="6" opacity="0.55" rx="1.5" width="14" x="1009" y="328"/>
  <rect fill="#ffffff" height="5" opacity="0.55" rx="1" width="2" x="1034" y="328.5"/>

  <!-- 边框 -->
  <rect fill="none" height="359" rx="4" stroke="#ffffff" stroke-opacity="0.08" width="1199" x="0.5" y="0.5"/>
</svg>
